<?xml version="1.0" encoding="UTF-8" standalone="no"?>
<!-- Generator: Adobe Illustrator 16.0.4, SVG Export Plug-In . SVG Version: 6.00 Build 0)  -->

<svg
   inkscape:version="1.1 (c4e8f9e, 2021-05-24)"
   sodipodi:docname="logo.svg"
   xml:space="preserve"
   enable-background="new 0 0 560 560"
   viewBox="0 0 951.68633 321.43283"
   height="321.43283"
   width="951.68634"
   y="0px"
   x="0px"
   id="Layer_1"
   version="1.1"
   xmlns:inkscape="http://www.inkscape.org/namespaces/inkscape"
   xmlns:sodipodi="http://sodipodi.sourceforge.net/DTD/sodipodi-0.dtd"
   xmlns="http://www.w3.org/2000/svg"
   xmlns:svg="http://www.w3.org/2000/svg"><defs
   id="defs187" /><sodipodi:namedview
   id="namedview185"
   pagecolor="#ffffff"
   bordercolor="#666666"
   borderopacity="1.0"
   inkscape:pageshadow="2"
   inkscape:pageopacity="0.0"
   inkscape:pagecheckerboard="0"
   showgrid="false"
   inkscape:zoom="0.77946429"
   inkscape:cx="445.81901"
   inkscape:cy="349.59908"
   inkscape:window-width="1826"
   inkscape:window-height="1081"
   inkscape:window-x="457"
   inkscape:window-y="67"
   inkscape:window-maximized="0"
   inkscape:current-layer="Layer_1" />
<g
   id="g182"
   transform="translate(-15.855332,-117.65421)">
	<path
   fill="none"
   stroke="#ffffff"
   stroke-width="4.917"
   stroke-miterlimit="10"
   d="m 166.663,387.951 c 3.318,0.121 13.581,0.053 24.677,-7.059 3.597,-2.306 16.65,-10.562 17.422,-19.991 0.583,-7.112 -6.015,-12.521 -16.324,-12.143"
   id="path154" />
	
		<line
   fill="none"
   stroke="#49aa48"
   stroke-width="0.803"
   stroke-miterlimit="10"
   x1="166.66299"
   y1="398.67599"
   x2="154.767"
   y2="396.26099"
   id="line156" />
	<path
   fill="#ffffff"
   d="m 338.629,257.767 c -0.183,2.288 -0.794,5.625 -1.835,10.016 -1.043,4.391 -2.13,9.011 -3.263,13.858 -1.135,4.85 -2.222,9.515 -3.263,13.995 -1.043,4.482 -1.653,7.958 -1.834,10.428 -0.271,4.026 -0.748,8.575 -1.428,13.652 -0.679,5.076 -1.383,10.222 -2.106,15.436 -0.727,5.214 -1.405,10.245 -2.038,15.093 -0.636,4.85 -1.089,9.104 -1.359,12.761 -0.091,1.281 -0.136,2.929 -0.136,4.938 0,2.014 0.066,4.277 0.204,6.792 0.135,2.518 0.292,5.214 0.475,8.096 0.181,2.881 0.408,5.741 0.68,8.575 0.181,1.831 0.43,3.752 0.748,5.763 0.316,2.014 0.611,4.026 0.883,6.037 0.272,2.014 0.477,3.935 0.611,5.763 0.136,1.831 0.158,3.478 0.068,4.939 -0.183,2.379 -0.838,4.438 -1.972,6.175 -1.134,1.738 -2.492,3.179 -4.076,4.321 -1.588,1.146 -3.219,1.967 -4.894,2.47 -1.678,0.502 -3.195,0.708 -4.554,0.617 -2.266,-0.184 -4.213,-0.96 -5.844,-2.332 -1.633,-1.372 -2.991,-3.451 -4.078,-6.243 -1.087,-2.789 -1.881,-6.38 -2.378,-10.771 -0.5,-4.391 -0.748,-9.649 -0.748,-15.779 0,-4.023 0.18,-8.369 0.544,-13.034 0.36,-4.665 0.815,-9.375 1.358,-14.133 0.544,-4.755 1.108,-9.398 1.699,-13.926 0.588,-4.527 1.177,-8.666 1.768,-12.418 0.588,-3.749 1.087,-6.997 1.494,-9.741 0.408,-2.743 0.657,-4.665 0.748,-5.763 0.181,-3.108 0.385,-6.037 0.611,-8.781 0.226,-2.744 0.476,-5.716 0.748,-8.919 0.361,-4.39 0.883,-8.665 1.562,-12.828 0.682,-4.162 1.429,-8.323 2.243,-12.487 0.816,-4.161 1.653,-8.345 2.516,-12.554 0.859,-4.206 1.563,-8.597 2.106,-13.172 0.361,-2.103 0.68,-4.275 0.951,-6.517 0.272,-2.241 0.588,-4.344 0.952,-6.311 0.361,-1.967 0.747,-3.726 1.156,-5.283 0.406,-1.554 0.972,-2.744 1.697,-3.567 0.725,-0.914 1.768,-1.647 3.126,-2.196 1.359,-0.549 2.809,-0.937 4.351,-1.166 1.54,-0.227 3.035,-0.365 4.484,-0.411 1.448,-0.046 2.583,-0.022 3.399,0.068 1.176,0.092 2.128,0.664 2.854,1.715 0.725,1.053 1.292,2.699 1.698,4.939 0.409,2.243 0.612,5.146 0.612,8.713 0.003,3.568 -0.18,7.958 -0.54,13.172"
   id="path158" />
	<path
   fill="none"
   stroke="#ffffff"
   stroke-miterlimit="10"
   d="m 338.629,257.767 c -0.183,2.288 -0.794,5.625 -1.835,10.016 -1.043,4.391 -2.13,9.011 -3.263,13.858 -1.135,4.85 -2.222,9.515 -3.263,13.995 -1.043,4.482 -1.653,7.958 -1.834,10.428 -0.271,4.026 -0.748,8.575 -1.428,13.652 -0.679,5.076 -1.383,10.222 -2.106,15.436 -0.727,5.214 -1.405,10.245 -2.038,15.093 -0.636,4.85 -1.089,9.104 -1.359,12.761 -0.091,1.281 -0.136,2.929 -0.136,4.938 0,2.014 0.066,4.277 0.204,6.792 0.135,2.518 0.292,5.214 0.475,8.096 0.181,2.881 0.408,5.741 0.68,8.575 0.181,1.831 0.43,3.752 0.748,5.763 0.316,2.014 0.611,4.026 0.883,6.037 0.272,2.014 0.477,3.935 0.611,5.763 0.136,1.831 0.158,3.478 0.068,4.939 -0.183,2.379 -0.838,4.438 -1.972,6.175 -1.134,1.738 -2.492,3.179 -4.076,4.321 -1.588,1.146 -3.219,1.967 -4.894,2.47 -1.678,0.502 -3.195,0.708 -4.554,0.617 -2.266,-0.184 -4.213,-0.96 -5.844,-2.332 -1.633,-1.372 -2.991,-3.451 -4.078,-6.243 -1.087,-2.789 -1.881,-6.38 -2.378,-10.771 -0.5,-4.391 -0.748,-9.649 -0.748,-15.779 0,-4.023 0.18,-8.369 0.544,-13.034 0.36,-4.665 0.815,-9.375 1.358,-14.133 0.544,-4.755 1.108,-9.398 1.699,-13.926 0.588,-4.527 1.177,-8.666 1.768,-12.418 0.588,-3.749 1.087,-6.997 1.494,-9.741 0.408,-2.743 0.657,-4.665 0.748,-5.763 0.181,-3.108 0.385,-6.037 0.611,-8.781 0.226,-2.744 0.476,-5.716 0.748,-8.919 0.361,-4.39 0.883,-8.665 1.562,-12.828 0.682,-4.162 1.429,-8.323 2.243,-12.487 0.816,-4.161 1.653,-8.345 2.516,-12.554 0.859,-4.206 1.563,-8.597 2.106,-13.172 0.361,-2.103 0.68,-4.275 0.951,-6.517 0.272,-2.241 0.588,-4.344 0.952,-6.311 0.361,-1.967 0.747,-3.726 1.156,-5.283 0.406,-1.554 0.972,-2.744 1.697,-3.567 0.725,-0.914 1.768,-1.647 3.126,-2.196 1.359,-0.549 2.809,-0.937 4.351,-1.166 1.54,-0.227 3.035,-0.365 4.484,-0.411 1.448,-0.046 2.583,-0.022 3.399,0.068 1.176,0.092 2.128,0.664 2.854,1.715 0.725,1.053 1.292,2.699 1.698,4.939 0.409,2.243 0.612,5.146 0.612,8.713 0.003,3.568 -0.18,7.958 -0.54,13.172 z"
   id="path160" />
	<path
   fill="#ffffff"
   d="m 539.792,409.381 c -1.813,2.287 -4.124,4.14 -6.932,5.557 -2.81,1.419 -5.301,2.127 -7.476,2.127 -1.271,0 -2.854,0.023 -4.759,0.068 -1.901,0.047 -3.873,0.092 -5.911,0.137 -2.039,0.048 -4.011,0.092 -5.912,0.138 -1.903,0.047 -3.49,0.068 -4.758,0.068 -5.8,0 -11.849,0.48 -18.146,1.44 -6.299,0.961 -12.572,2.195 -18.825,3.705 -6.252,1.51 -12.437,3.108 -18.553,4.802 -6.117,1.691 -11.894,3.293 -17.331,4.803 -5.437,1.509 -10.488,2.744 -15.155,3.704 -4.667,0.961 -8.678,1.44 -12.028,1.44 -5.437,0 -9.675,-1.258 -12.709,-3.772 -3.036,-2.518 -4.645,-5.513 -4.825,-8.987 -0.183,-2.195 -0.183,-4.802 0,-7.821 0.181,-3.018 0.544,-6.311 1.088,-9.879 0.543,-3.566 1.177,-7.34 1.902,-11.319 0.725,-3.979 1.539,-8.026 2.447,-12.143 0.543,-2.744 1.244,-6.312 2.106,-10.702 0.859,-4.391 1.698,-8.987 2.515,-13.789 0.815,-4.803 1.584,-9.468 2.311,-13.994 0.724,-4.529 1.312,-8.255 1.767,-11.184 0.997,-6.676 1.925,-12.69 2.787,-18.043 0.859,-5.351 1.675,-10.496 2.445,-15.436 0.77,-4.939 1.517,-9.947 2.243,-15.024 0.726,-5.076 1.404,-10.771 2.039,-17.082 0.544,-6.86 0.929,-12.987 1.156,-18.386 0.224,-5.396 0.815,-9.947 1.766,-13.652 0.952,-3.704 2.491,-6.539 4.621,-8.507 2.128,-1.966 5.414,-2.95 9.855,-2.95 2.535,0 4.643,0.504 6.319,1.51 1.677,1.007 3.06,2.332 4.146,3.979 1.087,1.646 1.903,3.522 2.446,5.625 0.544,2.106 0.904,4.209 1.088,6.312 0.089,0.641 -0.204,2.699 -0.884,6.174 -0.68,3.477 -1.563,7.799 -2.65,12.966 -1.087,5.169 -2.311,10.908 -3.67,17.219 -1.359,6.312 -2.697,12.716 -4.009,19.209 -1.315,6.497 -2.539,12.784 -3.67,18.866 -1.135,6.085 -2.019,11.412 -2.652,15.984 -0.543,4.026 -1.201,8.349 -1.97,12.967 -0.771,4.62 -1.563,9.284 -2.379,13.995 -0.815,4.712 -1.632,9.398 -2.446,14.063 -0.816,4.665 -1.542,9.034 -2.175,13.104 -0.636,4.07 -1.111,7.73 -1.428,10.977 -0.318,3.248 -0.387,5.831 -0.203,7.752 0.181,1.646 0.859,3.156 2.038,4.528 1.178,1.372 2.764,2.058 4.758,2.058 2.174,0 4.914,-0.296 8.223,-0.892 3.307,-0.595 6.841,-1.372 10.602,-2.333 3.76,-0.96 7.59,-2.011 11.485,-3.155 3.896,-1.143 7.612,-2.217 11.146,-3.225 0.814,-0.274 2.378,-0.662 4.688,-1.166 2.312,-0.502 4.983,-1.074 8.021,-1.716 3.033,-0.639 6.272,-1.279 9.718,-1.921 3.442,-0.638 6.681,-1.234 9.719,-1.782 3.034,-0.55 5.73,-1.007 8.086,-1.373 2.356,-0.364 3.987,-0.549 4.895,-0.549 1.176,0 2.83,-0.138 4.961,-0.411 2.128,-0.274 4.553,-0.501 7.271,-0.687 2.718,-0.182 5.662,-0.273 8.834,-0.273 3.171,0 6.342,0.32 9.516,0.96 1.631,0.366 2.854,1.166 3.671,2.4 0.814,1.235 1.267,2.676 1.358,4.322 0.089,1.646 -0.092,3.293 -0.544,4.939 -0.453,1.647 -1.133,3.067 -2.037,4.255"
   id="path162" />
	<path
   fill="none"
   stroke="#ffffff"
   stroke-miterlimit="10"
   d="m 539.792,409.381 c -1.813,2.287 -4.124,4.14 -6.932,5.557 -2.81,1.419 -5.301,2.127 -7.476,2.127 -1.271,0 -2.854,0.023 -4.759,0.068 -1.901,0.047 -3.873,0.092 -5.911,0.137 -2.039,0.048 -4.011,0.092 -5.912,0.138 -1.903,0.047 -3.49,0.068 -4.758,0.068 -5.8,0 -11.849,0.48 -18.146,1.44 -6.299,0.961 -12.572,2.195 -18.825,3.705 -6.252,1.51 -12.437,3.108 -18.553,4.802 -6.117,1.691 -11.894,3.293 -17.331,4.803 -5.437,1.509 -10.488,2.744 -15.155,3.704 -4.667,0.961 -8.678,1.44 -12.028,1.44 -5.437,0 -9.675,-1.258 -12.709,-3.772 -3.036,-2.518 -4.645,-5.513 -4.825,-8.987 -0.183,-2.195 -0.183,-4.802 0,-7.821 0.181,-3.018 0.544,-6.311 1.088,-9.879 0.543,-3.566 1.177,-7.34 1.902,-11.319 0.725,-3.979 1.539,-8.026 2.447,-12.143 0.543,-2.744 1.244,-6.312 2.106,-10.702 0.859,-4.391 1.698,-8.987 2.515,-13.789 0.815,-4.803 1.584,-9.468 2.311,-13.994 0.724,-4.529 1.312,-8.255 1.767,-11.184 0.997,-6.676 1.925,-12.69 2.787,-18.043 0.859,-5.351 1.675,-10.496 2.445,-15.436 0.77,-4.939 1.517,-9.947 2.243,-15.024 0.726,-5.076 1.404,-10.771 2.039,-17.082 0.544,-6.86 0.929,-12.987 1.156,-18.386 0.224,-5.396 0.815,-9.947 1.766,-13.652 0.952,-3.704 2.491,-6.539 4.621,-8.507 2.128,-1.966 5.414,-2.95 9.855,-2.95 2.535,0 4.643,0.504 6.319,1.51 1.677,1.007 3.06,2.332 4.146,3.979 1.087,1.646 1.903,3.522 2.446,5.625 0.544,2.106 0.904,4.209 1.088,6.312 0.089,0.641 -0.204,2.699 -0.884,6.174 -0.68,3.477 -1.563,7.799 -2.65,12.966 -1.087,5.169 -2.311,10.908 -3.67,17.219 -1.359,6.312 -2.697,12.716 -4.009,19.209 -1.315,6.497 -2.539,12.784 -3.67,18.866 -1.135,6.085 -2.019,11.412 -2.652,15.984 -0.543,4.026 -1.201,8.349 -1.97,12.967 -0.771,4.62 -1.563,9.284 -2.379,13.995 -0.815,4.712 -1.632,9.398 -2.446,14.063 -0.816,4.665 -1.542,9.034 -2.175,13.104 -0.636,4.07 -1.111,7.73 -1.428,10.977 -0.318,3.248 -0.387,5.831 -0.203,7.752 0.181,1.646 0.859,3.156 2.038,4.528 1.178,1.372 2.764,2.058 4.758,2.058 2.174,0 4.914,-0.296 8.223,-0.892 3.307,-0.595 6.841,-1.372 10.602,-2.333 3.76,-0.96 7.59,-2.011 11.485,-3.155 3.896,-1.143 7.612,-2.217 11.146,-3.225 0.814,-0.274 2.378,-0.662 4.688,-1.166 2.312,-0.502 4.983,-1.074 8.021,-1.716 3.033,-0.639 6.272,-1.279 9.718,-1.921 3.442,-0.638 6.681,-1.234 9.719,-1.782 3.034,-0.55 5.73,-1.007 8.086,-1.373 2.356,-0.364 3.987,-0.549 4.895,-0.549 1.176,0 2.83,-0.138 4.961,-0.411 2.128,-0.274 4.553,-0.501 7.271,-0.687 2.718,-0.182 5.662,-0.273 8.834,-0.273 3.171,0 6.342,0.32 9.516,0.96 1.631,0.366 2.854,1.166 3.671,2.4 0.814,1.235 1.267,2.676 1.358,4.322 0.089,1.646 -0.092,3.293 -0.544,4.939 -0.453,1.647 -1.133,3.067 -2.037,4.255 z"
   id="path164" />
	<path
   fill="#ffffff"
   d="m 156.973,122.024 c 0,0 0.187,-0.096 0.556,-0.286 0.422,-0.199 0.75,-0.438 1.952,-0.913 0.27,-0.108 0.557,-0.223 0.86,-0.345 0.313,-0.128 0.624,-0.24 0.92,-0.324 0.614,-0.181 1.288,-0.419 2.024,-0.597 1.47,-0.362 3.199,-0.7 5.122,-0.843 3.861,-0.374 8.507,-0.018 13.567,1.135 5.06,1.169 10.547,3.162 16.234,6.044 2.83,1.47 5.701,3.167 8.639,5.051 2.946,1.882 5.957,3.939 8.941,6.429 0.373,0.316 0.748,0.633 1.125,0.952 l 0.282,0.243 0.308,0.28 0.499,0.46 c 0.726,0.69 1.543,1.45 2.22,2.165 1.411,1.468 2.785,2.99 4.089,4.623 2.635,3.239 5.139,6.769 7.408,10.63 2.244,3.884 4.189,8.12 5.831,12.62 1.528,4.559 2.726,9.388 3.212,14.458 0.156,1.256 0.125,2.555 0.19,3.834 0.024,0.64 0.049,1.282 0.073,1.926 0.001,0.644 -0.063,1.295 -0.093,1.944 -0.039,0.647 -0.078,1.297 -0.118,1.948 l -0.062,0.975 -0.032,0.488 -0.016,0.244 c -0.001,0.067 -0.032,0.311 -0.032,0.311 -0.083,0.601 -0.166,1.204 -0.25,1.809 -0.108,0.67 -0.207,1.362 -0.33,2.014 -0.969,5.175 -2.736,10.194 -4.866,15.075 -2.17,4.868 -4.776,9.621 -7.943,14.076 -3.141,4.471 -6.756,8.68 -10.665,12.689 -3.901,4.021 -8.123,7.831 -12.631,11.424 -2.258,1.793 -4.584,3.534 -7.005,5.199 -2.431,1.665 -4.905,3.267 -7.653,4.73 -0.7,0.363 -1.394,0.728 -2.225,1.077 -0.442,0.174 -0.84,0.352 -1.591,0.527 -0.321,0.046 -0.379,0.09 -0.922,0.1 -0.332,-0.21 -1.206,0.598 -3.069,-1.86 0.111,0.243 -0.402,-0.705 -0.338,-1.802 0.087,-0.794 0.109,-0.619 0.182,-0.972 0.223,-0.7 0.428,-1.117 0.626,-1.518 0.201,-0.411 0.399,-0.764 0.601,-1.122 0.401,-0.71 0.812,-1.363 1.227,-2.019 1.649,-2.6 3.38,-5.066 5.192,-7.505 3.608,-4.876 7.456,-9.64 11.593,-14.277 4.12,-4.652 8.529,-9.171 13.34,-13.486 4.851,-4.269 10.121,-8.343 16.499,-11.461 3.193,-1.541 6.685,-2.878 10.674,-3.506 1.987,-0.313 4.103,-0.421 6.276,-0.21 0.543,0.055 1.088,0.11 1.634,0.219 l 0.819,0.152 c -0.194,-0.081 0.736,0.197 0.736,0.197 l 0.291,0.078 c 0.821,0.241 1.372,0.29 2.726,0.881 0.587,0.243 1.173,0.499 1.754,0.766 l 1.437,0.8 c 0.984,0.519 1.827,1.154 2.686,1.794 0.889,0.625 1.592,1.346 2.392,2.033 0.752,0.707 1.402,1.461 2.102,2.203 2.671,2.99 4.524,6.342 5.875,9.743 l 0.992,2.539 c 0.292,0.849 0.64,1.676 0.949,2.516 0.634,1.661 1.283,3.307 1.887,4.962 1.192,3.309 2.327,6.615 3.319,9.955 2.067,6.664 3.485,13.455 4.619,20.319 0.28,1.717 0.539,3.445 0.773,5.175 l 0.173,1.284 0.158,1.355 0.313,2.491 c 0.373,3.681 0.668,7.186 0.812,10.751 0.289,7.117 0.009,14.271 -0.82,21.354 -1.74,14.163 -5.274,28.057 -10.106,41.426 -4.874,13.362 -11.102,26.204 -18.672,38.26 -3.783,6.03 -7.912,11.862 -12.448,17.431 -4.535,5.567 -9.469,10.894 -15.061,15.759 -5.593,4.853 -11.793,9.377 -19.496,12.553 -3.822,1.614 -8.126,2.803 -12.868,3.177 l -1.792,0.09 -1.835,-0.036 c -0.607,-0.003 -1.234,-0.08 -1.853,-0.139 l -0.93,-0.101 c 0.395,0.09 -1.075,-0.182 -1.019,-0.176 l -0.3,-0.06 -1.199,-0.238 -0.599,-0.12 c -0.075,-0.01 -0.219,-0.047 -0.41,-0.103 l -0.514,-0.149 c -0.684,-0.201 -1.368,-0.417 -2.046,-0.644 l -1.012,-0.354 c -0.354,-0.124 -0.557,-0.238 -0.843,-0.36 -4.368,-1.853 -7.918,-4.457 -10.905,-7.175 -3.015,-2.718 -5.451,-5.641 -7.644,-8.548 -2.181,-2.917 -4.085,-5.859 -5.884,-8.712 -0.86,-1.403 -1.719,-2.807 -2.576,-4.206 l -0.287,-0.471 -0.148,-0.258 -0.296,-0.515 -0.592,-1.03 c -0.399,-0.704 -0.768,-1.303 -1.225,-2.206 l -1.297,-2.51 c -0.45,-0.851 -0.759,-1.612 -1.143,-2.422 -0.758,-1.592 -1.406,-3.2 -2.055,-4.805 -0.66,-1.603 -1.198,-3.218 -1.791,-4.819 -0.511,-1.609 -1.075,-3.214 -1.531,-4.813 -1.904,-6.405 -3.298,-12.727 -4.463,-18.904 -1.155,-6.178 -2.082,-12.216 -2.978,-18.114 -0.442,-2.915 -0.9,-5.946 -1.286,-8.965 -0.395,-3.013 -0.732,-5.98 -1.041,-8.938 -2.337,-23.639 -2.605,-45.899 -1.715,-66.508 0.472,-10.309 1.112,-20.059 1.684,-29.272 0.305,-4.612 0.602,-9.106 0.891,-13.474 0.313,-4.364 0.555,-8.557 0.893,-12.705 0.324,-4.131 0.637,-8.129 0.939,-11.989 0.344,-3.856 0.674,-7.574 0.992,-11.146 0.368,-3.582 0.72,-7.017 1.057,-10.3 0.373,-3.3 0.962,-6.401 1.582,-9.359 1.241,-5.927 2.451,-11.202 3.809,-15.865 1.321,-4.63 2.748,-8.649 4.324,-12.067 0.206,-0.43 0.406,-0.846 0.6,-1.251 0.187,-0.398 0.38,-0.789 0.635,-1.202 0.485,-0.81 0.889,-1.529 1.369,-2.234 0.547,-0.733 1.06,-1.391 1.545,-1.98 0.599,-0.614 1.21,-1.104 1.771,-1.492 1.224,-0.716 2.189,-1.174 2.694,-1.411 0.542,-0.273 0.803,-0.436 0.803,-0.436 z m 5.075,10.029 c 0,0 -0.103,0.051 -0.275,0.198 -0.236,0.141 -0.255,0.442 -0.291,0.758 0,0.205 -0.018,0.379 -0.114,0.5 -0.097,0.238 -0.21,0.496 -0.35,0.752 -0.138,0.325 -0.285,0.789 -0.455,1.207 -0.09,0.195 -0.169,0.47 -0.248,0.767 -0.081,0.287 -0.165,0.582 -0.252,0.886 -0.677,2.48 -1.365,5.988 -1.873,10.332 -0.601,4.287 -1.061,9.414 -1.566,15.148 -0.295,5.782 -1.36,12.122 -2.221,19.099 -0.415,3.497 -0.848,7.137 -1.296,10.912 -0.412,3.78 -0.837,7.697 -1.277,11.743 -0.452,4.027 -0.832,8.288 -1.264,12.618 -0.41,4.33 -0.833,8.784 -1.266,13.355 -0.843,9.157 -1.705,18.728 -2.033,28.621 -0.358,9.885 -0.205,20.257 0.222,30.94 0.451,10.683 1.375,21.705 2.833,32.902 0.373,2.794 0.775,5.61 1.223,8.404 0.449,2.791 0.968,5.585 1.514,8.529 1.081,5.819 2.177,11.643 3.45,17.382 1.279,5.732 2.739,11.386 4.555,16.823 0.438,1.371 0.959,2.685 1.431,4.034 0.54,1.301 1.028,2.642 1.608,3.914 0.57,1.281 1.134,2.567 1.776,3.794 0.312,0.602 0.617,1.292 0.932,1.821 l 0.927,1.668 c 0.257,0.507 0.735,1.244 1.139,1.904 l 0.626,1.01 0.313,0.505 0.156,0.253 c -0.208,-0.343 0.035,0.045 0.03,0.032 0.86,1.314 1.718,2.589 2.566,3.822 1.69,2.474 3.438,4.786 5.235,6.904 1.784,2.123 3.645,4.033 5.463,5.61 1.833,1.567 3.644,2.754 5.244,3.502 0.087,0.04 0.236,0.136 0.27,0.135 0.049,0.011 0.095,0.026 0.14,0.047 0.09,0.04 0.175,0.093 0.259,0.159 l 0.063,0.052 c -0.002,0.018 0.049,0.039 0.175,0.064 l 0.594,0.146 1.187,0.29 0.297,0.073 c 0.255,0.057 -1.014,-0.184 -0.416,-0.076 l 0.285,0.041 c 0.192,0.027 0.373,0.084 0.583,0.082 0.204,0.014 0.409,0.031 0.614,0.057 l 0.657,-0.005 c 0.897,-0.028 1.869,-0.097 2.912,-0.383 0.51,-0.093 1.056,-0.3 1.59,-0.438 0.548,-0.208 1.093,-0.365 1.655,-0.611 4.468,-1.881 9.147,-5.195 13.471,-9.108 4.323,-3.952 8.417,-8.491 12.166,-13.398 3.758,-4.904 7.24,-10.131 10.43,-15.571 6.381,-10.887 11.702,-22.55 15.959,-34.544 4.283,-11.992 7.44,-24.358 9.401,-36.793 1.048,-6.21 1.849,-12.435 2.424,-18.673 0.303,-3.114 0.472,-6.28 0.596,-9.251 l 0.034,-2.493 0.005,-0.625 0.003,-0.312 c 0.003,-0.053 -0.006,-0.323 0.009,-0.198 l -0.007,-1.203 c -0.011,-1.584 -0.044,-3.163 -0.098,-4.745 -0.204,-6.333 -0.785,-12.63 -1.586,-18.798 -0.448,-3.074 -0.983,-6.116 -1.778,-9.037 l -0.625,-2.171 c -0.232,-0.707 -0.489,-1.406 -0.734,-2.108 -0.298,-0.673 -0.574,-1.351 -0.896,-2.01 -0.323,-0.65 -0.676,-1.276 -1.019,-1.908 -1.454,-2.456 -2.876,-4.753 -4.275,-6.79 -0.377,-0.46 -0.737,-0.97 -1.114,-1.412 -0.39,-0.4 -0.742,-0.916 -1.148,-1.253 -0.398,-0.365 -0.777,-0.783 -1.185,-1.076 l -0.593,-0.497 c -0.14,-0.087 -0.273,-0.186 -0.405,-0.297 -0.052,-0.198 -1.057,-0.574 -1.739,-0.88 l -0.277,-0.12 c -0.187,-0.073 0.55,0.154 0.16,0.032 l -0.348,-0.127 c -0.227,-0.101 -0.474,-0.162 -0.72,-0.233 -0.985,-0.279 -2.084,-0.428 -3.264,-0.441 -1.18,-0.015 -2.43,0.137 -3.712,0.388 -1.277,0.282 -2.58,0.669 -3.881,1.145 -5.21,1.975 -10.312,5.151 -15.089,8.679 -4.805,3.535 -9.286,7.544 -13.514,11.731 -4.209,4.208 -8.178,8.609 -11.82,13.149 -1.798,2.28 -3.554,4.588 -5.093,6.917 -0.371,0.582 -0.742,1.168 -1.061,1.73 -0.158,0.278 -0.318,0.563 -0.438,0.808 -0.134,0.248 -0.228,0.494 -0.228,0.494 0.035,-0.176 -0.008,0.173 0.063,-0.441 0.048,-0.913 -0.482,-1.678 -0.27,-1.272 -1.75,-2.315 -2.422,-1.482 -2.576,-1.7 -0.361,0.017 -0.241,0.008 -0.381,0.035 -0.042,0.012 0.24,-0.076 0.471,-0.175 0.508,-0.212 1.109,-0.506 1.687,-0.823 2.351,-1.284 4.702,-2.834 6.961,-4.423 2.266,-1.597 4.462,-3.28 6.59,-5.011 4.247,-3.475 8.227,-7.152 11.856,-11.01 3.629,-3.859 6.883,-7.913 9.761,-12.066 2.859,-4.161 5.394,-8.418 7.197,-12.846 1.844,-4.409 2.857,-8.982 3.171,-13.4 0.041,-0.545 0.052,-1.055 0.083,-1.579 0.023,-0.551 0.019,-1.188 0.024,-1.776 -0.08,-1.06 -0.16,-2.114 -0.239,-3.161 -0.047,-0.532 -0.058,-1.061 -0.13,-1.586 l -0.291,-1.565 c -0.225,-1.034 -0.342,-2.065 -0.637,-3.067 -1.034,-4.031 -2.652,-7.773 -4.431,-11.283 -1.889,-3.485 -4.081,-6.668 -6.323,-9.664 -2.316,-2.955 -4.711,-5.704 -7.161,-8.211 -1.236,-1.24 -2.45,-2.46 -3.678,-3.581 -0.625,-0.598 -1.152,-1.081 -1.752,-1.626 -0.619,-0.543 -1.231,-1.08 -1.837,-1.612 -2.448,-2.094 -4.909,-4.119 -7.34,-5.915 -2.437,-1.797 -4.855,-3.372 -7.182,-4.759 -2.324,-1.394 -4.526,-2.68 -6.647,-3.724 -2.118,-1.049 -4.128,-1.907 -6,-2.587 -1.875,-0.682 -3.613,-1.157 -5.188,-1.444 -1.576,-0.303 -2.987,-0.447 -4.21,-0.454 -1.237,-0.038 -2.268,0.112 -3.152,0.239 -0.445,0.061 -0.823,0.187 -1.187,0.261 -0.196,0.039 -0.34,0.083 -0.452,0.126 -0.125,0.038 -0.244,0.075 -0.355,0.11 -0.348,0.049 -1.1,0.428 -1.434,0.566 -0.379,0.168 -0.572,0.254 -0.572,0.254 z"
   id="path166" />
	<path
   fill="#bc8471"
   d="m 144.917,131.941 c 0,0 -0.149,-0.027 -0.443,-0.08 -0.304,-0.059 -0.73,-0.132 -1.251,-0.21 -1.06,-0.173 -2.723,-0.384 -4.874,-0.549 -2.158,-0.165 -4.836,-0.22 -7.976,-0.101 -3.138,0.16 -6.732,0.575 -10.674,1.415 -3.947,0.821 -8.196,2.244 -12.568,4.303 -1.09,0.523 -2.22,1.023 -3.288,1.692 -0.544,0.315 -1.094,0.632 -1.648,0.953 -0.555,0.32 -1.125,0.629 -1.649,1.021 -1.04,0.717 -2.1,1.448 -3.178,2.191 -1.106,0.906 -2.232,1.827 -3.376,2.763 -1.042,0.941 -1.981,1.897 -3.008,2.859 -0.98,1.03 -1.943,2.148 -2.94,3.24 -0.892,1.186 -1.864,2.338 -2.735,3.592 -0.833,1.28 -1.764,2.521 -2.513,3.906 -3.211,5.396 -5.715,11.629 -7.255,18.407 -0.77,3.387 -1.326,6.898 -1.552,10.494 l -0.04,0.57 -0.017,0.712 -0.017,0.713 0.017,0.615 c 0,0.804 0.083,1.688 0.155,2.549 0.195,1.727 0.534,3.463 1.006,5.201 1.916,6.972 5.953,13.791 10.755,20.274 4.851,6.487 10.539,12.716 16.674,18.829 3.063,3.046 6.224,6.071 9.509,8.916 1.64,1.418 3.322,2.799 5.005,3.991 0.825,0.581 1.705,1.136 2.36,1.432 0.126,0.045 0.311,0.134 0.323,0.122 0.03,0.013 0.066,0.025 -0.037,-0.002 -0.077,-0.006 -0.078,-0.002 -0.39,0.009 -0.12,0.013 -0.239,0.044 -0.348,0.09 -0.199,0.047 -0.413,0.136 -0.596,0.257 0.135,-0.205 -0.828,0.779 -0.624,0.559 0.024,-0.032 0.138,-0.162 0.087,-0.114 -0.167,0.175 -0.31,0.395 -0.402,0.626 -0.107,0.299 -0.12,0.43 -0.125,0.407 -0.027,0.067 -0.009,0.211 -0.021,0.157 0.016,0.013 -0.05,-0.414 -0.161,-0.79 -0.112,-0.4 -0.261,-0.848 -0.445,-1.309 -0.358,-0.921 -0.801,-1.883 -1.279,-2.842 -0.972,-1.921 -2.076,-3.846 -3.258,-5.742 -2.362,-3.798 -5.005,-7.509 -7.831,-11.09 -1.415,-1.79 -2.88,-3.547 -4.397,-5.259 -1.498,-1.68 -3.151,-3.45 -4.73,-5.136 -3.195,-3.399 -6.49,-6.658 -10.007,-9.589 -3.515,-2.912 -7.259,-5.533 -11.265,-7.311 -4.002,-1.757 -8.241,-2.622 -12.368,-2.157 l -0.194,0.012 c -0.203,0.026 0.06,-0.027 -0.051,-0.004 l -0.446,0.082 -0.892,0.164 c -0.281,0.058 -0.63,0.101 -0.856,0.171 l -0.686,0.203 c -0.454,0.126 -0.914,0.245 -1.414,0.457 -0.485,0.202 -0.991,0.336 -1.46,0.588 -1.93,0.85 -3.761,2.012 -5.478,3.383 -3.451,2.741 -6.421,6.252 -9.208,10.054 l -1.051,1.444 -0.205,0.285 -0.254,0.377 -0.508,0.755 -2.027,3.017 c -1.139,1.986 -2.361,3.883 -3.385,6.006 -1.119,2.048 -2.018,4.207 -2.981,6.331 -0.834,2.182 -1.741,4.335 -2.424,6.572 -0.779,2.203 -1.353,4.473 -1.99,6.72 -0.518,2.28 -1.093,4.545 -1.481,6.852 -0.866,4.591 -1.455,9.233 -1.761,13.886 -1.293,18.628 1.1,37.215 5.372,54.58 1.083,4.336 2.282,8.623 3.645,12.807 0.658,2.16 1.384,4.184 2.094,6.215 0.716,2.028 1.511,4.056 2.287,6.055 1.603,3.989 3.327,7.877 5.148,11.66 1.85,3.769 3.794,7.433 5.847,10.965 2.052,3.533 4.215,6.931 6.472,10.178 2.251,3.206 4.693,6.429 7.023,9.506 4.706,6.166 9.496,11.874 14.476,16.94 9.904,10.153 20.742,17.621 31.375,21.117 10.613,3.557 20.668,3.066 28.354,1.1 7.775,-1.979 13.427,-5.099 17.125,-7.341 1.858,-1.129 3.222,-2.1 4.148,-2.741 0.912,-0.663 1.383,-1.006 1.383,-1.006 l 3.915,5.26 c 0,0 -0.511,0.371 -1.499,1.09 -1.005,0.696 -2.485,1.75 -4.515,2.983 -4.041,2.447 -10.242,5.892 -18.967,8.115 -4.32,1.112 -9.399,1.802 -14.771,1.717 -5.438,-0.04 -11.307,-1.018 -17.244,-2.957 -2.955,-1.008 -5.924,-2.243 -8.872,-3.712 -2.941,-1.479 -5.839,-3.215 -8.697,-5.141 -5.723,-3.851 -11.187,-8.578 -16.412,-13.89 -5.226,-5.314 -10.196,-11.248 -15.008,-17.553 -2.404,-3.179 -4.786,-6.313 -7.192,-9.738 -2.368,-3.404 -4.624,-6.952 -6.76,-10.629 -2.138,-3.677 -4.157,-7.483 -6.077,-11.396 -1.891,-3.927 -3.679,-7.959 -5.34,-12.095 -0.809,-2.08 -1.622,-4.153 -2.378,-6.295 -0.751,-2.146 -1.521,-4.311 -2.164,-6.425 -1.405,-4.313 -2.638,-8.72 -3.759,-13.208 -2.224,-8.968 -3.919,-18.227 -4.925,-27.702 -0.988,-9.472 -1.332,-19.166 -0.624,-28.923 0.322,-4.877 0.94,-9.767 1.856,-14.625 0.412,-2.438 1.018,-4.846 1.572,-7.266 0.674,-2.394 1.29,-4.806 2.12,-7.164 0.732,-2.386 1.699,-4.701 2.598,-7.037 1.03,-2.287 2.002,-4.602 3.206,-6.813 1.085,-2.246 2.475,-4.445 3.768,-6.654 l 2.03,-3.022 0.508,-0.755 0.254,-0.377 0.324,-0.456 1.09,-1.498 c 2.943,-4.006 6.266,-8.006 10.419,-11.308 2.068,-1.65 4.358,-3.116 6.859,-4.222 0.604,-0.314 1.27,-0.513 1.904,-0.769 0.618,-0.256 1.325,-0.458 2.038,-0.649 l 1.06,-0.288 c 0.356,-0.095 0.611,-0.12 0.921,-0.183 l 0.892,-0.164 0.446,-0.082 c 0.036,-0.011 0.45,-0.065 0.398,-0.05 l 0.258,-0.02 c 5.51,-0.637 11.024,0.563 15.798,2.675 4.796,2.137 8.97,5.098 12.799,8.264 3.822,3.185 7.298,6.636 10.585,10.132 1.656,1.769 3.228,3.448 4.864,5.283 1.606,1.811 3.148,3.661 4.636,5.543 2.972,3.769 5.738,7.648 8.256,11.696 1.26,2.024 2.452,4.093 3.55,6.264 0.544,1.093 1.064,2.209 1.534,3.416 0.236,0.6 0.455,1.234 0.65,1.931 0.184,0.721 0.385,1.414 0.396,2.568 0.016,0.231 -0.031,0.655 -0.089,1.005 -0.014,0.12 -0.061,0.388 -0.228,0.816 -0.143,0.365 -0.335,0.717 -0.553,1.025 -0.123,0.168 -0.111,0.142 -0.174,0.222 0.128,-0.095 -0.95,0.968 -0.949,0.819 -0.308,0.188 -0.646,0.346 -0.972,0.457 -0.25,0.064 -0.509,0.114 -0.77,0.146 -0.593,0.078 -0.876,0.023 -1.234,-0.013 -0.388,-0.041 -0.624,-0.111 -0.866,-0.18 -0.542,-0.141 -0.87,-0.3 -1.27,-0.461 -1.405,-0.651 -2.423,-1.344 -3.447,-2.05 -1.996,-1.416 -3.783,-2.893 -5.523,-4.396 -3.47,-3.005 -6.705,-6.105 -9.851,-9.232 C 91.63,235.7 85.724,229.253 80.584,222.379 75.505,215.495 71.051,208.143 68.77,199.932 c -0.557,-2.048 -0.968,-4.137 -1.203,-6.242 -0.091,-1.06 -0.187,-2.089 -0.192,-3.196 l -0.015,-0.816 0.017,-0.714 0.017,-0.712 0.027,-0.494 0.026,-0.355 c 0.251,-3.962 0.859,-7.812 1.702,-11.518 1.686,-7.416 4.434,-14.284 8.004,-20.288 0.837,-1.533 1.866,-2.926 2.8,-4.348 0.972,-1.397 2.052,-2.691 3.055,-4.009 1.114,-1.233 2.176,-2.461 3.299,-3.637 1.19,-1.132 2.376,-2.305 3.532,-3.337 1.144,-0.936 2.269,-1.857 3.376,-2.763 1.273,-0.886 2.525,-1.757 3.755,-2.613 0.587,-0.433 1.22,-0.782 1.839,-1.14 0.619,-0.359 1.233,-0.713 1.84,-1.065 1.196,-0.74 2.453,-1.305 3.67,-1.889 4.877,-2.299 9.61,-3.871 13.975,-4.784 4.362,-0.932 8.319,-1.385 11.767,-1.56 3.45,-0.133 6.388,-0.07 8.766,0.111 2.384,0.183 4.183,0.412 5.442,0.616 0.641,0.098 1.093,0.176 1.375,0.23 0.294,0.054 0.443,0.081 0.443,0.081 z"
   id="path168" />
	<path
   fill="#ffffff"
   d="m 315.992,207.438 c 0,0 -0.183,-0.128 -0.537,-0.377 -0.093,-0.07 -0.189,-0.144 -0.292,-0.223 -0.132,-0.109 -0.27,-0.223 -0.414,-0.343 -0.284,-0.245 -0.597,-0.535 -0.893,-0.847 -0.393,-0.484 -0.913,-1.097 -1.261,-1.741 -0.791,-1.319 -1.369,-2.887 -1.694,-4.508 -0.334,-1.633 -0.482,-3.367 -0.483,-5.204 10e-4,-3.67 0.56,-7.772 1.599,-12.292 1.045,-4.517 2.589,-9.435 4.737,-14.664 0.539,-1.305 1.107,-2.639 1.726,-3.988 l 0.482,-1.013 0.294,-0.601 0.24,-0.474 c 0.32,-0.633 0.645,-1.272 0.972,-1.917 0.296,-0.631 0.75,-1.385 1.125,-2.08 0.406,-0.693 0.77,-1.467 1.197,-2.126 0.83,-1.364 1.665,-2.759 2.617,-4.1 0.899,-1.382 1.935,-2.686 2.949,-4.039 1.077,-1.295 2.136,-2.645 3.321,-3.897 2.307,-2.573 4.862,-5.015 7.6,-7.329 5.461,-4.654 11.692,-8.773 18.581,-12.021 3.448,-1.623 7.047,-3.061 10.872,-4.164 1.926,-0.527 3.885,-1.005 5.962,-1.33 2.058,-0.35 4.229,-0.554 6.633,-0.496 0.609,0.024 1.193,0.028 1.873,0.125 0.673,0.091 1.274,0.128 2.039,0.324 0.735,0.174 1.423,0.313 2.29,0.672 0.415,0.162 0.814,0.319 1.231,0.512 0.468,0.254 0.931,0.528 1.382,0.82 0.227,0.149 0.443,0.287 0.67,0.457 0.247,0.207 0.489,0.423 0.727,0.646 0.235,0.224 0.467,0.455 0.689,0.692 l 0.328,0.359 c 0.223,0.307 -0.273,-0.43 0.54,0.735 l 0.045,0.07 0.181,0.281 0.092,0.141 0.046,0.072 0.148,0.271 c 0.383,0.708 0.741,1.557 0.95,2.251 0.635,2.203 0.549,3.873 0.419,5.362 -0.337,2.88 -1.15,4.99 -1.979,6.962 -0.836,1.959 -1.782,3.708 -2.711,5.414 -1.854,3.405 -3.719,6.58 -5.56,9.714 -1.843,3.122 -3.684,6.169 -5.606,9.076 -1.938,2.896 -3.969,5.643 -6.114,8.194 -2.154,2.544 -4.331,4.966 -6.48,7.294 -4.34,4.622 -8.643,8.804 -12.821,12.484 -4.17,3.688 -8.211,6.877 -11.993,9.561 -3.789,2.676 -7.329,4.852 -10.663,6.405 -3.295,1.549 -6.568,2.497 -9.573,2.435 -0.342,0.011 -0.749,-0.044 -1.092,-0.078 -0.358,-0.047 -0.661,-0.069 -0.992,-0.147 -0.662,-0.161 -1.191,-0.289 -1.644,-0.471 -0.91,-0.377 -1.353,-0.621 -1.353,-0.621 z m 5.6,-9.446 c 0,0 -0.032,-0.069 -0.146,-0.105 -0.054,-0.016 -0.044,-0.065 -0.09,-0.062 -0.021,0.002 0.025,-0.026 0.033,-0.028 0.025,-0.013 0.01,0.009 0.087,-0.019 0.354,-0.054 1.943,-0.431 4.191,-1.776 2.236,-1.295 5.059,-3.327 8.134,-6.013 3.088,-2.671 6.466,-5.95 10.027,-9.692 3.556,-3.746 7.324,-7.928 11.164,-12.474 1.94,-2.256 3.878,-4.621 5.826,-7.053 1.957,-2.427 4.018,-4.848 6.109,-7.308 2.102,-2.45 4.214,-4.957 6.178,-7.586 1.944,-2.628 3.749,-5.406 5.115,-8.259 0.679,-1.423 1.241,-2.873 1.679,-4.221 0.43,-1.333 0.674,-2.649 0.718,-3.314 0.011,-0.277 -0.055,-0.42 0.08,0.059 0.069,0.273 0.247,0.712 0.473,1.004 l 0.088,0.115 -0.043,-0.07 -0.087,-0.142 -0.175,-0.285 -0.045,-0.072 0.428,0.612 0.091,0.123 c 0.064,0.079 0.137,0.153 0.216,0.219 0.078,0.067 0.163,0.125 0.251,0.175 0.048,0.039 0.068,0.067 0.108,0.095 0.072,0.053 0.159,0.09 0.249,0.107 0.01,0.01 -0.01,0.009 -0.007,-0.001 0.058,-0.027 -0.136,-0.063 -0.265,-0.116 -0.092,-0.069 -0.389,-0.088 -0.597,-0.142 -0.202,-0.063 -0.513,-0.075 -0.796,-0.106 -1.163,-0.107 -2.578,-0.099 -4.054,0.07 -1.465,0.132 -2.997,0.409 -4.528,0.727 -3.075,0.662 -6.186,1.585 -9.204,2.732 -6.045,2.298 -11.795,5.358 -16.87,8.985 -2.55,1.801 -4.927,3.755 -7.102,5.821 -1.121,1.004 -2.119,2.099 -3.149,3.146 -0.963,1.101 -1.961,2.16 -2.828,3.293 -0.919,1.098 -1.719,2.255 -2.529,3.384 -0.425,0.567 -0.736,1.116 -1.096,1.677 -0.345,0.585 -0.694,1.051 -1.035,1.719 -0.333,0.641 -0.663,1.277 -0.991,1.907 l -0.244,0.471 -0.062,0.118 -0.031,0.058 c -0.057,0.116 0.044,-0.092 0.025,-0.05 l -0.102,0.225 -0.404,0.891 c -0.517,1.199 -1.022,2.383 -1.438,3.582 -1.706,4.779 -2.801,9.367 -3.477,13.387 -0.669,4.021 -0.882,7.52 -0.71,10.105 0.083,1.289 0.26,2.341 0.475,3.076 0.207,0.75 0.452,1.111 0.547,1.21 0.05,0.098 0.065,0.011 0.054,0.038 -0.064,-0.092 -0.157,-0.186 -0.243,-0.249 -0.045,-0.032 -0.089,-0.06 -0.133,-0.084 -0.047,-0.025 -0.109,-0.054 -0.026,-0.006 0.371,0.224 0.562,0.34 0.562,0.34 z"
   id="path170" />
	<path
   fill="#ffffff"
   d="m 262.554,253.711 c 0,0 -0.222,-0.059 -0.639,-0.168 -0.422,-0.109 -1.026,-0.255 -1.796,-0.404 -0.774,-0.158 -1.723,-0.304 -2.813,-0.453 -1.092,-0.11 -2.328,-0.248 -3.678,-0.262 -1.349,-0.046 -2.813,0.015 -4.343,0.171 -1.522,0.205 -3.126,0.475 -4.677,1.037 -0.76,0.279 -1.567,0.606 -2.23,1.009 -0.351,0.235 -0.804,0.458 -1.07,0.708 -0.306,0.232 -0.605,0.479 -0.879,0.776 -1.15,1.114 -1.694,2.626 -2.384,4.376 -0.349,0.877 -0.785,1.792 -1.334,2.66 -0.56,0.866 -1.262,1.643 -2.015,2.318 -0.747,0.67 -1.58,1.255 -2.374,1.712 -0.876,0.514 -1.688,0.904 -2.548,1.25 -1.702,0.663 -3.373,1.152 -4.973,1.466 -1.597,0.332 -3.111,0.534 -4.509,0.656 -2.794,0.257 -5.115,0.221 -6.731,0.164 -1.617,-0.074 -2.536,-0.17 -2.536,-0.17 l -0.013,-1.926 c 0,0 0.899,-0.099 2.472,-0.271 0.781,-0.089 1.73,-0.197 2.818,-0.32 1.085,-0.122 2.301,-0.297 3.616,-0.495 1.312,-0.219 2.73,-0.453 4.189,-0.804 1.456,-0.358 2.977,-0.752 4.454,-1.343 0.72,-0.298 1.499,-0.613 2.15,-0.974 0.742,-0.393 1.38,-0.825 2.015,-1.292 1.245,-0.956 2.201,-2.15 3.025,-3.707 0.42,-0.778 0.846,-1.632 1.388,-2.468 0.527,-0.843 1.227,-1.631 2.004,-2.255 0.377,-0.323 0.799,-0.602 1.238,-0.857 0.441,-0.294 0.815,-0.412 1.221,-0.622 0.469,-0.223 0.874,-0.347 1.304,-0.528 0.432,-0.138 0.859,-0.28 1.285,-0.4 1.715,-0.445 3.381,-0.73 4.969,-0.866 1.584,-0.181 3.084,-0.209 4.466,-0.267 2.765,-0.066 5.069,-0.03 6.692,-0.034 1.638,0.011 2.543,-0.018 2.543,-0.018 z"
   id="path172" />
	<path
   fill="#bc8471"
   d="m 29.179,228.626 c 0,0 0.189,0.302 0.564,0.848 0.382,0.547 0.93,1.341 1.68,2.283 0.733,0.965 1.692,2.083 2.802,3.351 1.126,1.252 2.449,2.61 3.947,4.032 3.013,2.808 6.782,5.872 11.207,8.379 1.105,0.622 2.247,1.203 3.425,1.71 0.293,0.13 0.593,0.235 0.889,0.354 l 0.445,0.174 0.223,0.087 0.056,0.022 0.027,0.011 c 0.023,0.009 -0.102,-0.046 -0.034,-0.018 l 0.12,0.039 0.971,0.317 c 0.325,0.107 0.661,0.226 0.926,0.262 1.101,0.272 2.294,0.381 3.301,0.27 1.025,-0.105 1.982,-0.474 3.423,-0.955 1.436,-0.477 3.291,-0.813 5.016,-0.776 0.843,0.04 1.713,0.09 2.498,0.246 0.823,0.114 1.58,0.305 2.33,0.511 l 0.566,0.149 0.563,0.175 c 0.338,0.109 0.62,0.183 1.006,0.334 l 1.092,0.41 1.012,0.418 c 1.328,0.581 2.602,1.194 3.805,1.86 4.821,2.644 8.836,5.62 12.108,8.34 1.653,1.338 3.094,2.646 4.357,3.812 1.272,1.16 2.314,2.237 3.191,3.105 1.713,1.776 2.632,2.852 2.632,2.852 l -2.79,3.279 c 0,0 -1.202,-0.715 -3.216,-2.053 -1.002,-0.669 -2.219,-1.482 -3.615,-2.413 -1.378,-0.936 -2.934,-1.991 -4.63,-3.142 -1.693,-1.121 -3.526,-2.335 -5.465,-3.62 -1.946,-1.242 -3.989,-2.536 -6.126,-3.747 -1.07,-0.601 -2.151,-1.199 -3.255,-1.739 l -0.825,-0.41 -0.782,-0.359 c -0.237,-0.117 -0.599,-0.255 -0.898,-0.387 l -0.399,-0.168 -0.412,-0.151 c -1.114,-0.445 -2.185,-0.741 -3.224,-0.956 -1.039,-0.179 -1.973,-0.19 -3.23,-0.005 -1.248,0.175 -3.009,0.52 -4.761,0.363 -1.756,-0.155 -3.295,-0.619 -4.761,-1.279 -0.393,-0.155 -0.682,-0.308 -0.985,-0.463 l -0.911,-0.462 -0.114,-0.058 -0.093,-0.043 -0.029,-0.016 -0.058,-0.034 -0.233,-0.135 -0.464,-0.269 c -0.306,-0.182 -0.62,-0.352 -0.916,-0.541 -1.186,-0.753 -2.331,-1.504 -3.42,-2.282 -4.355,-3.103 -8.081,-6.272 -11.371,-8.895 -1.649,-1.307 -3.16,-2.506 -4.499,-3.569 -1.374,-1.03 -2.547,-1.95 -3.562,-2.671 -0.999,-0.745 -1.813,-1.286 -2.356,-1.657 -0.551,-0.367 -0.856,-0.552 -0.856,-0.552 z"
   id="path174" />
	<path
   fill="#ffffff"
   d="m 171.935,324.775 c 0,0 0.232,-0.231 0.667,-0.665 0.385,-0.411 0.988,-1.009 1.715,-1.814 0.747,-0.782 1.587,-1.787 2.532,-2.935 0.934,-1.158 1.905,-2.513 2.868,-4.019 0.947,-1.517 1.86,-3.201 2.553,-5.048 0.716,-1.858 1.218,-3.784 1.412,-5.947 0.227,-2.338 0.368,-4.588 0.179,-6.869 -0.165,-2.269 -0.716,-4.491 -1.923,-6.358 -1.181,-1.875 -3.108,-3.282 -5.334,-3.986 l -0.409,-0.15 -0.102,-0.037 -0.026,-0.01 c -0.024,-0.007 0.121,0.029 0.046,0.01 l -0.059,-0.013 -0.236,-0.055 -0.943,-0.204 c -0.325,-0.08 -0.615,-0.121 -0.887,-0.145 l -0.835,-0.102 c -1.144,-0.106 -2.339,-0.122 -3.493,-0.062 -2.323,0.139 -4.555,0.633 -6.62,1.234 -2.069,0.611 -3.939,1.461 -5.621,2.293 -0.828,0.45 -1.62,0.875 -2.337,1.344 -0.735,0.437 -1.405,0.892 -2.013,1.35 -0.625,0.431 -1.166,0.891 -1.673,1.304 -0.518,0.4 -0.955,0.811 -1.342,1.19 -0.387,0.377 -0.751,0.692 -1.034,1 -0.278,0.311 -0.515,0.576 -0.707,0.791 -0.383,0.426 -0.587,0.653 -0.587,0.653 l -3.903,-4.053 c 0,0 0.284,-0.214 0.815,-0.615 0.531,-0.401 1.301,-0.992 2.325,-1.673 0.502,-0.354 1.07,-0.725 1.7,-1.105 0.626,-0.389 1.294,-0.818 2.047,-1.208 0.743,-0.407 1.523,-0.849 2.382,-1.249 0.839,-0.436 1.756,-0.82 2.708,-1.221 1.909,-0.793 4.015,-1.559 6.318,-2.115 2.289,-0.596 4.765,-1.009 7.37,-1.142 1.31,-0.065 2.626,-0.05 4.009,0.082 l 1.059,0.135 c 0.364,0.041 0.706,0.095 1.005,0.171 l 0.942,0.205 0.237,0.048 0.06,0.012 0.104,0.025 0.031,0.011 0.128,0.04 0.509,0.163 c 1.366,0.395 2.721,0.959 4.016,1.697 0.618,0.417 1.3,0.763 1.853,1.285 0.588,0.48 1.189,0.963 1.676,1.552 2.092,2.245 3.509,5.082 4.215,7.906 0.754,2.82 0.917,5.707 0.795,8.285 -0.137,2.764 -0.724,5.523 -1.614,7.891 -0.901,2.383 -2.003,4.501 -3.218,6.281 -1.191,1.8 -2.415,3.331 -3.577,4.6 -1.157,1.271 -2.234,2.305 -3.148,3.117 -0.913,0.807 -1.664,1.411 -2.2,1.819 -0.499,0.372 -0.765,0.57 -0.765,0.57 z"
   id="path176" />
	<path
   fill="#bc8471"
   d="m 69.713,364.93 c 6.134,-4.667 14.856,-4.447 21.346,-0.498 8.368,5.092 8.237,15.463 12.155,23.494 3.431,7.031 9.314,12.807 16.727,15.472 3.583,1.288 7.481,1.831 11.266,1.313 4.793,-0.657 11.366,-4.983 15.747,-1.241 2.567,2.193 6.315,-1.521 3.729,-3.729 -8.228,-7.027 -17.845,1.641 -27.107,-0.719 -12.416,-3.162 -16.093,-14.301 -19.563,-25.099 -2.533,-7.883 -7.441,-13.688 -15.411,-16.372 -7.112,-2.396 -15.476,-1.796 -21.551,2.825 -2.666,2.027 -0.041,6.61 2.662,4.554"
   id="path178" />
	<path
   fill="#bc8471"
   d="m 100.136,319.21 c -0.706,7.158 7.943,9.245 13.332,6.873 3.295,-1.45 5.686,-4.637 7.627,-7.563 0.991,-1.494 1.906,-3.129 2.205,-4.919 0.165,-0.985 0.004,-1.83 0.021,-2.802 -0.039,-0.371 -0.106,-0.738 -0.199,-1.1 -0.63,-2.04 0.609,-3.504 3.717,-4.392 1.603,1.226 3.166,-1.497 1.583,-2.708 -3.412,-2.606 -8.083,0.062 -8.709,3.979 -0.184,1.147 0.086,2.14 0.242,3.271 0.373,2.715 -0.051,4.664 -1.568,7.087 -1.198,1.913 -3.185,4.54 -5.164,5.761 -3.217,1.984 -10.498,2.061 -9.951,-3.487 0.198,-2.007 -2.94,-1.993 -3.136,0"
   id="path180" />
</g>
<g
   aria-label="L"
   transform="scale(1.0274362,0.97329646)"
   id="text2957-52"
   style="font-weight:bold;font-size:114.382px;line-height:1.25;font-family:Calibri;-inkscape-font-specification:'Calibri, Bold';fill:#00ffff;stroke-width:1.34041"><path
     d="m 653.87859,296.73876 q 0,1.67552 -0.16756,2.84838 -0.1117,1.11701 -0.39095,1.89892 -0.27925,0.72606 -0.72606,1.06116 -0.39095,0.3351 -0.94946,0.3351 h -33.1194 q -1.84307,0 -3.12763,-1.06116 -1.22871,-1.11701 -1.22871,-3.57443 v -65.62445 q 0,-0.5585 0.3351,-1.00531 0.39095,-0.4468 1.22871,-0.72605 0.83776,-0.27926 2.23403,-0.44681 1.45211,-0.16755 3.57443,-0.16755 2.17818,0 3.57444,0.16755 1.39627,0.16755 2.23403,0.44681 0.83775,0.27925 1.17286,0.72605 0.39095,0.44681 0.39095,1.00531 v 58.14047 h 22.73119 q 0.55851,0 0.94946,0.3351 0.44681,0.27925 0.72606,1.00531 0.27925,0.67021 0.39095,1.84307 0.16756,1.11701 0.16756,2.79253 z"
     id="path59030" /></g><g
   aria-label="A"
   transform="scale(1.0274362,0.97329645)"
   id="text58275"
   style="font-weight:bold;font-size:85.3333px;line-height:1.25;font-family:Calibri;-inkscape-font-specification:'Calibri, Bold';fill:#00ffff;stroke-width:1.34041"><path
     d="m 712.31972,298.79899 q 0.5,1.5 0.625,2.375 0.125,0.875 -0.33333,1.33333 -0.45833,0.41667 -1.625,0.5 -1.16667,0.125 -3.20833,0.125 -2.125,0 -3.33333,-0.0833 -1.16667,-0.0417 -1.79167,-0.20833 -0.625,-0.20834 -0.875,-0.54167 -0.25,-0.33333 -0.41667,-0.875 l -3.625,-10.83333 H 677.4864 l -3.41666,10.54166 q -0.16667,0.58334 -0.45834,1 -0.25,0.375 -0.87499,0.625 -0.58334,0.20834 -1.70834,0.29167 -1.08333,0.0833 -2.875,0.0833 -1.91666,0 -3,-0.125 -1.08333,-0.125 -1.49999,-0.58333 -0.41667,-0.5 -0.29167,-1.375 0.125,-0.875 0.625,-2.33333 l 16.62499,-47.83331 q 0.25,-0.70834 0.58333,-1.125 0.33334,-0.45834 1.04167,-0.66667 0.75,-0.25 2.04167,-0.29167 1.29166,-0.0833 3.41666,-0.0833 2.45833,0 3.91667,0.0833 1.45833,0.0417 2.25,0.29167 0.83333,0.20833 1.16666,0.66667 0.375,0.45833 0.625,1.25 z m -24.74999,-39.54165 h -0.0417 l -7.625,22.91666 h 15.29166 z"
     id="path59033" /></g><g
   aria-label="B"
   transform="scale(1.0274362,0.97329645)"
   id="text58279"
   style="font-weight:bold;font-size:85.3333px;line-height:1.25;font-family:Calibri;-inkscape-font-specification:'Calibri, Bold';fill:#00ffff;stroke-width:1.34041"><path
     d="m 763.17885,286.71566 q 0,2.875 -0.79166,5.20834 -0.79167,2.33333 -2.20833,4.12499 -1.375,1.79167 -3.33334,3.08334 -1.91666,1.29166 -4.24999,2.12499 -2.33334,0.83334 -5,1.25 -2.625,0.375 -5.875,0.375 H 727.3872 q -1.375,0 -2.33333,-0.79166 -0.91667,-0.83334 -0.91667,-2.66667 v -46.99998 q 0,-1.83333 0.91667,-2.625 0.95833,-0.83333 2.33333,-0.83333 h 13.54166 q 4.95834,0 8.375,0.83333 3.45833,0.83334 5.79166,2.54167 2.375,1.66666 3.625,4.25 1.25,2.58333 1.25,6.08333 0,1.95833 -0.5,3.70833 -0.5,1.70833 -1.45833,3.125 -0.95833,1.41666 -2.375,2.5 -1.375,1.08333 -3.16666,1.75 2.29166,0.41666 4.20833,1.45833 1.95833,1.04167 3.375,2.70833 1.45833,1.625 2.29166,3.83333 0.83333,2.20834 0.83333,4.95833 z m -14.16666,-22.70832 q 0,-1.625 -0.5,-2.91667 -0.5,-1.29166 -1.49999,-2.12499 -1,-0.875 -2.54167,-1.33334 -1.5,-0.45833 -4.04167,-0.45833 H 734.8872 V 271.174 h 6.125 q 2.375,0 3.79166,-0.54166 1.41667,-0.58334 2.33333,-1.54167 0.95834,-1 1.41667,-2.29166 0.45833,-1.33334 0.45833,-2.79167 z m 2.79167,23.08332 q 0,-1.875 -0.625,-3.33333 -0.625,-1.5 -1.83333,-2.5 -1.20834,-1 -3.08333,-1.54166 -1.875,-0.54167 -4.875,-0.54167 h -6.5 v 15.33333 h 7.91666 q 2.29167,0 3.83334,-0.45834 1.58333,-0.5 2.70833,-1.41666 1.16666,-0.95833 1.79166,-2.33333 0.66667,-1.41667 0.66667,-3.20834 z"
     id="path59036" /></g><g
   aria-label="M"
   transform="scale(1.0274383,0.97329445)"
   id="text58573"
   style="font-weight:bold;font-size:85.3333px;line-height:1.25;font-family:Calibri;-inkscape-font-specification:'Calibri, Bold';fill:#00ffff;stroke-width:1.34041"><path
     d="m 681.50475,196.50249 q 0,0.41666 -0.25,0.75 -0.20833,0.33333 -0.83333,0.54166 -0.58333,0.20834 -1.58333,0.33334 -1,0.125 -2.54167,0.125 -1.5,0 -2.5,-0.125 -1,-0.125 -1.58333,-0.33334 -0.58333,-0.20833 -0.83333,-0.54166 -0.25,-0.33334 -0.25,-0.75 v -43.87498 h -0.0833 l -15.62499,43.83331 q -0.16667,0.54167 -0.54167,0.91667 -0.375,0.33333 -1.04166,0.54166 -0.625,0.20834 -1.625,0.25 -1,0.0833 -2.41667,0.0833 -1.41666,0 -2.41666,-0.125 -1,-0.0833 -1.66667,-0.29167 -0.625,-0.25 -1,-0.58333 -0.375,-0.33334 -0.5,-0.79167 l -15.08333,-43.83331 h -0.0833 v 43.87498 q 0,0.41666 -0.25,0.75 -0.20833,0.33333 -0.83333,0.54166 -0.625,0.20834 -1.625,0.33334 -0.95833,0.125 -2.5,0.125 -1.5,0 -2.5,-0.125 -1,-0.125 -1.625,-0.33334 -0.58333,-0.20833 -0.83333,-0.54166 -0.20833,-0.33334 -0.20833,-0.75 V 148.4608 q 0,-2.125 1.12499,-3.25 1.125,-1.125 3,-1.125 h 7.16667 q 1.91666,0 3.29166,0.33334 1.375,0.29166 2.375,1.04166 1,0.70834 1.66667,1.91667 0.66666,1.16666 1.16666,2.91666 l 11.66667,32.12499 h 0.16666 l 12.08333,-32.04165 q 0.54167,-1.75 1.16667,-2.95834 0.66666,-1.20833 1.5,-1.95833 0.875,-0.75 2.04166,-1.04166 1.16667,-0.33334 2.70833,-0.33334 h 7.375 q 1.125,0 1.91667,0.29167 0.83333,0.29167 1.33333,0.875 0.54167,0.54167 0.79167,1.375 0.29166,0.79166 0.29166,1.83333 z"
     id="path59039" /></g><g
   aria-label="A"
   transform="scale(1.0274383,0.97329445)"
   id="text58577"
   style="font-weight:bold;font-size:85.3333px;line-height:1.25;font-family:Calibri;-inkscape-font-specification:'Calibri, Bold';fill:#00ffff;stroke-width:1.34041"><path
     d="m 740.23494,193.91916 q 0.5,1.49999 0.625,2.37499 0.125,0.875 -0.33333,1.33334 -0.45833,0.41666 -1.625,0.5 -1.16666,0.125 -3.20833,0.125 -2.125,0 -3.33333,-0.0833 -1.16667,-0.0417 -1.79167,-0.20833 -0.625,-0.20833 -0.875,-0.54167 -0.25,-0.33333 -0.41666,-0.875 l -3.625,-10.83332 h -20.24999 l -3.41667,10.54166 q -0.16667,0.58333 -0.45833,1 -0.25,0.375 -0.875,0.625 -0.58334,0.20833 -1.70834,0.29166 -1.08333,0.0833 -2.87499,0.0833 -1.91667,0 -3,-0.125 -1.08334,-0.125 -1.5,-0.58334 -0.41667,-0.5 -0.29167,-1.375 0.125,-0.875 0.625,-2.33333 l 16.62499,-47.83331 q 0.25,-0.70833 0.58334,-1.125 0.33333,-0.45833 1.04166,-0.66667 0.75,-0.25 2.04167,-0.29166 1.29167,-0.0833 3.41666,-0.0833 2.45834,0 3.91667,0.0833 1.45833,0.0417 2.25,0.29166 0.83333,0.20834 1.16666,0.66667 0.375,0.45833 0.625,1.25 z m -24.74999,-39.54165 h -0.0417 l -7.625,22.91665 h 15.29166 z"
     id="path59042" /></g><g
   aria-label="G"
   transform="scale(1.0274383,0.97329445)"
   id="text58581"
   style="font-weight:bold;font-size:85.3333px;line-height:1.25;font-family:Calibri;-inkscape-font-specification:'Calibri, Bold';fill:#00ffff;stroke-width:1.34041"><path
     d="m 791.40946,152.46084 q 0,1.20833 -0.125,2.08333 -0.0833,0.875 -0.29166,1.41667 -0.16667,0.5 -0.45834,0.70833 -0.25,0.20833 -0.625,0.20833 -0.54166,0 -1.74999,-0.75 -1.20834,-0.75 -3.20834,-1.62499 -2,-0.875 -4.79166,-1.625 -2.75,-0.75 -6.41666,-0.75 -3.91667,0 -7.08334,1.375 -3.16666,1.33333 -5.41666,3.83333 -2.25,2.45833 -3.45833,5.95833 -1.20833,3.45833 -1.20833,7.66666 0,4.625 1.20833,8.16667 1.25,3.49999 3.45833,5.87499 2.20833,2.375 5.29166,3.58333 3.125,1.20834 6.875,1.20834 1.83333,0 3.625,-0.41667 1.79167,-0.41667 3.33333,-1.25 V 175.6275 h -10.20833 q -0.75,0 -1.16666,-0.91667 -0.41667,-0.95833 -0.41667,-3.20833 0,-1.16667 0.0833,-1.95833 0.125,-0.79167 0.33334,-1.25 0.20833,-0.5 0.5,-0.70834 0.29166,-0.25 0.66666,-0.25 h 18.20833 q 0.66667,0 1.16667,0.25 0.54166,0.20834 0.91666,0.66667 0.41667,0.45833 0.625,1.125 0.20833,0.625 0.20833,1.45833 v 21.45833 q 0,1.25 -0.45833,2.20833 -0.41667,0.91666 -1.79166,1.45833 -1.33334,0.54167 -3.33334,1.125 -2,0.58333 -4.16666,1 -2.125,0.41667 -4.33333,0.625 -2.16667,0.20833 -4.375,0.20833 -6.45833,0 -11.58333,-1.83333 -5.08333,-1.875 -8.625,-5.375 -3.54166,-3.54166 -5.41666,-8.58333 -1.875,-5.08333 -1.875,-11.49999 0,-6.625 2,-11.875 2,-5.29166 5.66666,-8.95833 3.66667,-3.70833 8.83333,-5.66666 5.20833,-1.95833 11.58333,-1.95833 3.5,0 6.375,0.5 2.875,0.45833 5,1.16666 2.16666,0.66667 3.58333,1.45834 1.41667,0.79166 1.95833,1.37499 0.58333,0.58334 0.83333,1.66667 0.25,1.04167 0.25,3.125 z"
     id="path59045" /></g><g
   aria-label="I"
   transform="scale(1.0274383,0.97329445)"
   id="text58585"
   style="font-weight:bold;font-size:85.3333px;line-height:1.25;font-family:Calibri;-inkscape-font-specification:'Calibri, Bold';fill:#00ffff;stroke-width:1.34041"><path
     d="m 815.14452,196.50249 q 0,0.41666 -0.29166,0.75 -0.25,0.33333 -0.875,0.54166 -0.625,0.20834 -1.66667,0.33334 -1.04166,0.125 -2.66666,0.125 -1.58334,0 -2.66667,-0.125 -1.04167,-0.125 -1.66667,-0.33334 -0.62499,-0.20833 -0.91666,-0.54166 -0.25,-0.33334 -0.25,-0.75 v -50.91665 q 0,-0.41666 0.25,-0.75 0.29167,-0.33333 0.91666,-0.54166 0.66667,-0.20834 1.70834,-0.33334 1.04166,-0.125 2.625,-0.125 1.625,0 2.66666,0.125 1.04167,0.125 1.66667,0.33334 0.625,0.20833 0.875,0.54166 0.29166,0.33334 0.29166,0.75 z"
     id="path59048" /></g><g
   aria-label="N"
   transform="scale(1.0274383,0.97329445)"
   id="text58589"
   style="font-weight:bold;font-size:85.3333px;line-height:1.25;font-family:Calibri;-inkscape-font-specification:'Calibri, Bold';fill:#00ffff;stroke-width:1.34041"><path
     d="m 869.54852,194.16916 q 0,0.95833 -0.33333,1.70833 -0.33333,0.75 -0.91667,1.25 -0.54166,0.5 -1.33333,0.75 -0.75,0.20833 -1.54167,0.20833 h -4.66666 q -1.45833,0 -2.54167,-0.29167 -1.04166,-0.29166 -1.95833,-1.04166 -0.875,-0.79167 -1.70833,-2.08333 -0.83333,-1.33334 -1.875,-3.41667 l -13.41666,-25.20832 q -1.16667,-2.25 -2.375,-4.83333 -1.20833,-2.625 -2.16667,-5.08334 h -0.0833 q 0.16667,3 0.25,6 0.0833,2.95833 0.0833,6.125 v 28.20832 q 0,0.41667 -0.25,0.75 -0.20833,0.33333 -0.79166,0.58333 -0.54167,0.20834 -1.5,0.33334 -0.95834,0.125 -2.45833,0.125 -1.45834,0 -2.41667,-0.125 -0.95833,-0.125 -1.5,-0.33334 -0.54167,-0.25 -0.75,-0.58333 -0.20833,-0.33333 -0.20833,-0.75 v -48.45831 q 0,-1.95833 1.125,-2.91667 1.16666,-1 2.83333,-1 h 5.875 q 1.58333,0 2.66666,0.29167 1.08334,0.25 1.91667,0.875 0.875,0.625 1.625,1.75 0.75,1.08333 1.54166,2.70833 l 10.5,19.70833 q 0.91667,1.79166 1.79167,3.54166 0.91666,1.70833 1.74999,3.45833 0.83334,1.70834 1.625,3.375 0.79167,1.66667 1.54167,3.33333 h 0.0417 q -0.125,-2.91666 -0.20834,-6.08333 -0.0417,-3.16666 -0.0417,-6.04166 v -25.29166 q 0,-0.41666 0.25,-0.75 0.25,-0.33333 0.83333,-0.58333 0.58333,-0.25 1.54167,-0.33333 0.95833,-0.125 2.45833,-0.125 1.41666,0 2.375,0.125 0.95833,0.0833 1.45833,0.33333 0.54167,0.25 0.75,0.58333 0.20833,0.33334 0.20833,0.75 z"
     id="path59051" /></g><g
   aria-label="G"
   transform="scale(1.0274383,0.97329445)"
   id="text58593"
   style="font-weight:bold;font-size:85.3333px;line-height:1.25;font-family:Calibri;-inkscape-font-specification:'Calibri, Bold';fill:#00ffff;stroke-width:1.34041"><path
     d="m 926.27104,152.46084 q 0,1.20833 -0.125,2.08333 -0.0833,0.875 -0.29167,1.41667 -0.16667,0.5 -0.45833,0.70833 -0.25,0.20833 -0.625,0.20833 -0.54167,0 -1.75,-0.75 -1.20833,-0.75 -3.20833,-1.62499 -2,-0.875 -4.79167,-1.625 -2.75,-0.75 -6.41666,-0.75 -3.91667,0 -7.08333,1.375 -3.16667,1.33333 -5.41667,3.83333 -2.25,2.45833 -3.45833,5.95833 -1.20833,3.45833 -1.20833,7.66666 0,4.625 1.20833,8.16667 1.25,3.49999 3.45833,5.87499 2.20833,2.375 5.29167,3.58333 3.125,1.20834 6.87499,1.20834 1.83334,0 3.625,-0.41667 1.79167,-0.41667 3.33333,-1.25 V 175.6275 h -10.20832 q -0.75,0 -1.16667,-0.91667 -0.41667,-0.95833 -0.41667,-3.20833 0,-1.16667 0.0833,-1.95833 0.125,-0.79167 0.33333,-1.25 0.20833,-0.5 0.5,-0.70834 0.29167,-0.25 0.66667,-0.25 h 18.20832 q 0.66667,0 1.16667,0.25 0.54166,0.20834 0.91666,0.66667 0.41667,0.45833 0.625,1.125 0.20834,0.625 0.20834,1.45833 v 21.45833 q 0,1.25 -0.45834,2.20833 -0.41666,0.91666 -1.79166,1.45833 -1.33334,0.54167 -3.33333,1.125 -2,0.58333 -4.16667,1 -2.125,0.41667 -4.33333,0.625 -2.16667,0.20833 -4.375,0.20833 -6.45833,0 -11.58333,-1.83333 -5.08333,-1.875 -8.62499,-5.375 -3.54167,-3.54166 -5.41667,-8.58333 -1.875,-5.08333 -1.875,-11.49999 0,-6.625 2,-11.875 2,-5.29166 5.66667,-8.95833 3.66666,-3.70833 8.83333,-5.66666 5.20833,-1.95833 11.58332,-1.95833 3.5,0 6.375,0.5 2.875,0.45833 5,1.16666 2.16667,0.66667 3.58333,1.45834 1.41667,0.79166 1.95833,1.37499 0.58334,0.58334 0.83334,1.66667 0.25,1.04167 0.25,3.125 z"
     id="path59054" /></g><g
   aria-label="I"
   transform="scale(1.02744,0.973296)"
   id="text2957"
   style="font-weight:bold;font-size:114.382px;line-height:1.25;font-family:Calibri;-inkscape-font-specification:'Calibri, Bold';fill:#00ffff;stroke-width:1.34041"><path
     d="m 602.78972,195.99155 q 0,0.5585 -0.39096,1.00531 -0.3351,0.4468 -1.17286,0.72605 -0.83776,0.27926 -2.23402,0.44681 -1.39627,0.16755 -3.57444,0.16755 -2.12232,0 -3.57444,-0.16755 -1.39626,-0.16755 -2.23402,-0.44681 -0.83776,-0.27925 -1.22872,-0.72605 -0.3351,-0.44681 -0.3351,-1.00531 v -68.24942 q 0,-0.55851 0.3351,-1.00531 0.39096,-0.44681 1.22872,-0.72606 0.89361,-0.27925 2.28987,-0.44681 1.39627,-0.16755 3.51859,-0.16755 2.17817,0 3.57444,0.16755 1.39626,0.16756 2.23402,0.44681 0.83776,0.27925 1.17286,0.72606 0.39096,0.4468 0.39096,1.00531 z"
     id="path59057" /></g><g
   aria-label="B"
   transform="scale(1.0274362,0.97329646)"
   id="text2957-5"
   style="font-weight:bold;font-size:114.382px;line-height:1.25;font-family:Calibri;-inkscape-font-specification:'Calibri, Bold';fill:#00ffff;stroke-width:1.34041"><path
     d="m 595.03359,73.891869 q 0,3.853691 -1.06116,6.981324 -1.06116,3.127633 -2.96008,5.529208 -1.84307,2.401575 -4.46805,4.132943 -2.56912,1.731369 -5.69676,2.84838 -3.12763,1.117012 -6.70207,1.675518 -3.51858,0.502655 -7.87493,0.502655 h -19.2126 q -1.84307,0 -3.12763,-1.061161 -1.22872,-1.117012 -1.22872,-3.574438 V 27.926835 q 0,-2.457425 1.22872,-3.518587 1.28456,-1.117011 3.12763,-1.117011 h 18.15144 q 6.64622,0 11.22597,1.117011 4.6356,1.117012 7.76323,3.406886 3.18348,2.234024 4.859,5.69676 1.67552,3.462737 1.67552,8.154186 0,2.624978 -0.67021,4.970702 -0.67021,2.289874 -1.95477,4.188794 -1.28456,1.89892 -3.18348,3.351036 -1.84307,1.452115 -4.24465,2.345724 3.07179,0.558506 5.64091,1.954771 2.62498,1.396265 4.5239,3.630288 1.95477,2.178173 3.07178,5.138254 1.11701,2.960081 1.11701,6.64622 z m -18.9892,-30.43857 q 0,-2.178173 -0.6702,-3.909541 -0.67021,-1.731368 -2.01062,-2.84838 -1.34042,-1.172863 -3.40689,-1.787219 -2.01062,-0.614357 -5.41751,-0.614357 h -7.42813 V 53.0596 h 8.21004 q 3.18348,0 5.0824,-0.726058 1.89892,-0.781908 3.12764,-2.066471 1.28456,-1.340415 1.89892,-3.071783 0.61435,-1.787219 0.61435,-3.741989 z m 3.74199,30.941226 q 0,-2.513277 -0.83776,-4.468048 -0.83775,-2.010621 -2.45742,-3.351035 -1.61967,-1.340414 -4.13294,-2.066472 -2.51328,-0.726057 -6.53452,-0.726057 h -8.7127 v 20.553016 h 10.61162 q 3.07178,0 5.13825,-0.614356 2.12232,-0.670207 3.63029,-1.89892 1.56382,-1.284564 2.40157,-3.127633 0.89361,-1.89892 0.89361,-4.300495 z"
     id="path59060" /></g><g
   aria-label="R"
   transform="scale(1.0274362,0.97329645)"
   id="text58816"
   style="font-weight:bold;font-size:85.3333px;line-height:1.25;font-family:Calibri;-inkscape-font-specification:'Calibri, Bold';fill:#00ffff;stroke-width:1.34041"><path
     d="m 646.09105,94.145231 q 0,0.458333 -0.16667,0.791667 -0.16667,0.291666 -0.79167,0.499999 -0.625,0.208334 -1.83333,0.291667 -1.20833,0.08333 -3.29167,0.08333 -1.74999,0 -2.79166,-0.08333 -1.04167,-0.08333 -1.66667,-0.291667 -0.58333,-0.25 -0.83333,-0.583333 -0.25,-0.375 -0.41667,-0.874999 l -4.83333,-12.041662 q -0.875,-2.041666 -1.70833,-3.624999 -0.83333,-1.583332 -1.875,-2.624998 -1,-1.083333 -2.33333,-1.625 -1.33333,-0.541666 -3.08333,-0.541666 h -3.41667 v 20.541658 q 0,0.416666 -0.29167,0.75 -0.25,0.333333 -0.875,0.541666 -0.625,0.208333 -1.66666,0.333333 -1.04167,0.125 -2.66667,0.125 -1.58333,0 -2.66666,-0.125 -1.04167,-0.125 -1.66667,-0.333333 -0.625,-0.208333 -0.875,-0.541666 -0.25,-0.333334 -0.25,-0.75 V 45.103585 q 0,-1.833333 0.91667,-2.624999 0.95833,-0.833333 2.33333,-0.833333 h 13.95833 q 2.125,0 3.5,0.08333 1.375,0.08333 2.5,0.208334 3.24999,0.458333 5.83333,1.583332 2.625,1.125 4.41666,2.958332 1.83333,1.791666 2.79167,4.291665 0.95833,2.458333 0.95833,5.666665 0,2.708332 -0.70833,4.958331 -0.66667,2.208332 -2,3.958332 -1.33334,1.749999 -3.29167,3.041665 -1.95833,1.291666 -4.45833,2.083332 1.20833,0.583334 2.25,1.416666 1.08333,0.833333 2,2.041666 0.95833,1.166666 1.79166,2.708333 0.83334,1.499999 1.625,3.416665 l 4.54167,10.624995 q 0.625,1.583333 0.83333,2.333333 0.20834,0.708333 0.20834,1.124999 z m -14.125,-36.583318 q 0,-2.666665 -1.20833,-4.499998 -1.20833,-1.833333 -3.95833,-2.583332 -0.83334,-0.208333 -1.91667,-0.333333 -1.04167,-0.125 -2.91666,-0.125 h -4.91667 v 15.29166 h 5.58333 q 2.33333,0 4.08333,-0.541667 1.75,-0.583333 2.91667,-1.583332 1.16667,-1.041666 1.75,-2.458333 0.58333,-1.416666 0.58333,-3.166665 z"
     id="path59063" /></g><g
   aria-label="A"
   transform="scale(1.0274362,0.97329645)"
   id="text58820"
   style="font-weight:bold;font-size:85.3333px;line-height:1.25;font-family:Calibri;-inkscape-font-specification:'Calibri, Bold';fill:#00ffff;stroke-width:1.34041"><path
     d="m 702.60958,91.478566 q 0.5,1.499999 0.625,2.374999 0.125,0.874999 -0.33334,1.333332 -0.45833,0.416667 -1.62499,0.5 -1.16667,0.125 -3.20834,0.125 -2.125,0 -3.33333,-0.08333 -1.16666,-0.04167 -1.79166,-0.208333 -0.625,-0.208334 -0.875,-0.541667 -0.25,-0.333333 -0.41667,-0.874999 l -3.625,-10.833329 h -20.24999 l -3.41667,10.541662 q -0.16666,0.583333 -0.45833,1 -0.25,0.374999 -0.875,0.624999 -0.58333,0.208334 -1.70833,0.291667 -1.08333,0.08333 -2.875,0.08333 -1.91667,0 -3,-0.125 -1.08333,-0.125 -1.5,-0.583333 -0.41666,-0.5 -0.29166,-1.374999 0.12499,-0.875 0.62499,-2.333333 l 16.625,-47.833313 q 0.25,-0.708333 0.58333,-1.125 0.33333,-0.458333 1.04167,-0.666666 0.75,-0.25 2.04166,-0.291666 1.29167,-0.08333 3.41667,-0.08333 2.45833,0 3.91666,0.08333 1.45834,0.04167 2.25,0.291666 0.83334,0.208333 1.16667,0.666666 0.375,0.458334 0.625,1.25 z M 677.85959,51.936915 h -0.0417 l -7.625,22.916658 h 15.29167 z"
     id="path59066" /></g><g
   aria-label="I"
   transform="scale(1.0274362,0.97329645)"
   id="text58824"
   style="font-weight:bold;font-size:85.3333px;line-height:1.25;font-family:Calibri;-inkscape-font-specification:'Calibri, Bold';fill:#00ffff;stroke-width:1.34041"><path
     d="m 724.14507,95.380028 q 0,0.416667 -0.29166,0.75 -0.25,0.333333 -0.875,0.541667 -0.625,0.208333 -1.66667,0.333333 -1.04166,0.125 -2.66666,0.125 -1.58334,0 -2.66667,-0.125 -1.04167,-0.125 -1.66667,-0.333333 -0.625,-0.208334 -0.91666,-0.541667 -0.25,-0.333333 -0.25,-0.75 V 44.463383 q 0,-0.416667 0.25,-0.75 0.29166,-0.333333 0.91666,-0.541666 0.66667,-0.208333 1.70834,-0.333333 1.04166,-0.125 2.625,-0.125 1.625,0 2.66666,0.125 1.04167,0.125 1.66667,0.333333 0.625,0.208333 0.875,0.541666 0.29166,0.333333 0.29166,0.75 z"
     id="path59069" /></g><g
   aria-label="N"
   transform="scale(1.0274362,0.97329645)"
   id="text58828"
   style="font-weight:bold;font-size:85.3333px;line-height:1.25;font-family:Calibri;-inkscape-font-specification:'Calibri, Bold';fill:#00ffff;stroke-width:1.34041"><path
     d="m 781.53015,91.728566 q 0,0.958332 -0.33333,1.708332 -0.33334,0.75 -0.91667,1.25 -0.54167,0.499999 -1.33333,0.749999 -0.75,0.208334 -1.54167,0.208334 h -4.66666 q -1.45834,0 -2.54167,-0.291667 -1.04166,-0.291667 -1.95833,-1.041666 -0.875,-0.791667 -1.70833,-2.083333 -0.83334,-1.333332 -1.875,-3.416665 L 751.2385,63.603577 q -1.16667,-2.249999 -2.375,-4.833331 -1.20834,-2.624999 -2.16667,-5.083331 h -0.0833 q 0.16667,2.999998 0.25,5.999997 0.0833,2.958332 0.0833,6.124998 v 28.208321 q 0,0.416667 -0.25,0.75 -0.20833,0.333333 -0.79166,0.583333 -0.54167,0.208333 -1.5,0.333333 -0.95834,0.125 -2.45834,0.125 -1.45833,0 -2.41666,-0.125 -0.95833,-0.125 -1.5,-0.333333 -0.54167,-0.25 -0.75,-0.583333 -0.20833,-0.333333 -0.20833,-0.75 V 45.561918 q 0,-1.958332 1.125,-2.916665 1.16666,-1 2.83333,-1 h 5.875 q 1.58333,0 2.66666,0.291667 1.08333,0.25 1.91667,0.874999 0.875,0.625 1.625,1.75 0.75,1.083332 1.54166,2.708332 l 10.5,19.708325 q 0.91666,1.791666 1.79166,3.541665 0.91667,1.708333 1.75,3.458332 0.83334,1.708333 1.625,3.374999 0.79167,1.666666 1.54167,3.333331 h 0.0417 q -0.125,-2.916665 -0.20833,-6.08333 -0.0417,-3.166666 -0.0417,-6.041664 V 43.270252 q 0,-0.416666 0.25,-0.749999 0.25,-0.333333 0.83334,-0.583333 0.58333,-0.25 1.54166,-0.333334 0.95834,-0.124999 2.45834,-0.124999 1.41666,0 2.375,0.124999 0.95833,0.08333 1.45833,0.333334 0.54166,0.25 0.75,0.583333 0.20833,0.333333 0.20833,0.749999 z"
     id="path59072" /></g></svg>
